<svg xmlns="http://www.w3.org/2000/svg" version="1.1" xmlns:xlink="http://www.w3.org/1999/xlink" xmlns:svgjs="http://svgjs.dev/svgjs" width="100%" height="100%" viewBox="0 0 1000 600"><rect width="1000" height="600" x="0" y="0" fill="#000000"/><g><circle r="166.66666666666666" cx="482.24527994791663" cy="504.46748747104004" fill="#ffffff" transform="matrix(0.39609784449006996,0,0,0.39609784449006996,0,100.18151229503067)"/><path d="M435.50613034881803 429.4675248429804L444.44332836155115 429.4675248429804L444.44332836155115 579.467523921556L435.50613034881803 579.467523921556L435.50613034881803 429.4675248429804ZM520.0773858679586 429.4675248429804L528.9843906441622 429.4675248429804L528.9843906441622 579.467523921556L520.0773858679586 579.467523921556L520.0773858679586 429.4675248429804ZM435.50613034881803 438.37452961918405L435.50613034881803 429.4675248429804L528.9843906441622 429.4675248429804L528.9843906441622 438.37452961918405L435.50613034881803 438.37452961918405ZM435.50613034881803 579.467523921556L435.50613034881803 570.5605191453524L528.9843906441622 570.5605191453524L528.9843906441622 579.467523921556L435.50613034881803 579.467523921556Z " fill="#000000" transform="matrix(0.39609784449006996,0,0,0.39609784449006996,0,100.18151229503067)"/><path d="M791.4347588765738 432.32140609908026L791.4347588765738 432.32140609908026Q798.6265400325491 432.32140609908026 805.4187777909701 432.7494883107455Q812.1824767352803 433.1490317082997 818.5466322820362 434.0908125739631Q824.939326642903 435.0040546255155 830.8753999779937 436.65930584395426L830.8753999779937 436.65930584395426L829.0489158748888 450.2152425466854Q822.656221514022 449.5873886362431 816.2064495249331 449.1878452386889Q809.7281387217331 448.7597630270237 803.7635265725314 448.6741465846907Q797.7989144233297 448.5599913282466 792.4621561845703 448.5599913282466L792.4621561845703 448.5599913282466Q780.961014097832 448.5599913282466 773.0557625890815 450.7289412006836Q765.1219722662199 452.8693522590096 760.4130679379027 459.0337361069884Q755.6756247954747 465.1981199549672 753.5352137371488 476.7278008558164Q751.3662638647118 488.2289429425546 751.3662638647118 506.72209448649096L751.3662638647118 506.72209448649096Q751.3662638647118 527.6695840439745 754.2486840899239 540.1125069963762Q757.1311043151363 552.5268911346667 763.8948032594463 558.0919598863143Q770.6870410178674 563.6284898238507 781.9884114058286 563.6284898238507L781.9884114058286 563.6284898238507Q789.7795076581351 563.6284898238507 796.2578184613351 561.3739235090807Q802.736129264535 559.1193571943106 808.3868144585156 555.523466616323Q814.0374996524961 551.9275760383355 819.3742578912554 548.0177585051267L819.3742578912554 548.0177585051267L821.8571347189136 559.1193571943106Q818.147088884482 563.4287181250736 811.668778081282 568.1661612675018Q805.190467278082 572.8750655958189 796.5717454165562 576.1570292185854Q787.9530235550303 579.4675316554628 777.0511965646233 579.4675316554628L777.0511965646233 579.4675316554628Q761.2406935471222 579.4675316554628 751.2521086082677 571.5337413326013Q741.2920624835242 563.6284898238507 736.7829298539841 547.3042881523513Q732.245258410333 530.9515476667409 732.245258410333 505.49492547971744L732.245258410333 505.49492547971744Q732.245258410333 477.32711595214766 737.8959436043136 461.40245767820244Q743.5466287982941 445.4777994042572 756.617405661138 438.91387215872425Q769.659643709871 432.32140609908026 791.4347588765738 432.32140609908026ZM816.9199198777084 494.79287018808753L834.5854458124254 494.79287018808753L834.5854458124254 576.7848831290278L821.4290525072483 576.7848831290278L818.5466322820362 555.8373935715442L816.9199198777084 551.7278043395584L816.9199198777084 494.79287018808753ZM865.4073650523193 476.7278008558164L882.6733475894822 476.7278008558164L882.6733475894822 576.7848831290278L865.4073650523193 576.7848831290278L865.4073650523193 476.7278008558164ZM869.9164976818594 434.17642901629614L878.1356761458311 434.17642901629614Q883.5009731987016 434.17642901629614 883.5009731987016 439.5131872550555L883.5009731987016 439.5131872550555L883.5009731987016 451.24263985468184Q883.5009731987016 456.5793980934413 878.1356761458311 456.5793980934413L878.1356761458311 456.5793980934413L869.9164976818594 456.5793980934413Q864.5797394430999 456.5793980934413 864.5797394430999 451.24263985468184L864.5797394430999 451.24263985468184L864.5797394430999 439.5131872550555Q864.5797394430999 434.17642901629614 869.9164976818594 434.17642901629614L869.9164976818594 434.17642901629614ZM952.5363645332418 429.467524687979L952.5363645332418 429.467524687979Q955.8183281560083 429.467524687979 960.9553146959905 429.55314113031204Q966.092301235973 429.6672963867561 971.4290594747323 429.9812233419772Q976.7658177134917 430.26661148308733 980.6756352467005 430.89446539352963L980.6756352467005 430.89446539352963L979.2486945411499 443.8510869999295L958.7007483812206 443.8510869999295Q948.82631869881 443.8510869999295 944.8308847232682 447.73236571902726Q940.8069119336154 451.642183252236 940.8069119336154 460.68898732542715L940.8069119336154 460.68898732542715L940.8069119336154 576.7848831290278L923.3411576976756 576.7848831290278L923.3411576976756 458.8339644082113Q923.3411576976756 449.387616937466 926.2235779228879 442.9093061342661Q929.1059981481002 436.43099533106613 935.4701536948561 432.94926000952256Q941.834309241612 429.467524687979 952.5363645332418 429.467524687979ZM924.368555005672 476.7278008558164L972.884538994394 476.7278008558164L972.884538994394 490.4835092573246L905.2760883654045 490.4835092573246L905.2760883654045 477.75519816381285L924.368555005672 476.7278008558164ZM1001.2235814066298 447.133050622696L1018.6893356425697 447.133050622696L1018.6893356425697 549.2449275119002Q1018.6893356425697 556.4367086678756 1021.7715275665591 559.5189005918648Q1024.8537194905484 562.6010925158544 1032.2452723453007 562.6010925158544L1032.2452723453007 562.6010925158544L1047.456460266471 562.6010925158544L1049.5112548824636 575.9572575198083Q1046.2292912596972 576.7848831290278 1041.9199303289342 577.4127370394699Q1037.6105693981713 578.0120521358012 1033.5009801661854 578.3259790910224Q1029.3913909341995 578.6399060462436 1026.9085141065416 578.6399060462436L1026.9085141065416 578.6399060462436Q1014.3799747118068 578.6399060462436 1007.8160474662737 571.6478965890453Q1001.2235814066298 564.6558871318473 1001.2235814066298 551.4994938266702L1001.2235814066298 551.4994938266702L1001.2235814066298 447.133050622696ZM1002.8788326250686 476.7278008558164L1050.5386521904602 476.7278008558164L1050.5386521904602 490.4835092573246L983.1585120743586 490.4835092573246L983.1585120743586 477.75519816381285L1002.8788326250686 476.7278008558164ZM1160.0706207485277 474.24492402815827L1160.0706207485277 474.24492402815827Q1177.3366032856907 474.24492402815827 1187.6961928079882 479.3819105681406Q1198.084321144397 484.5188971081229 1202.5934537739372 496.1341944513052Q1207.131125217588 507.7494917944874 1207.131125217588 526.841958434755L1207.131125217588 526.841958434755Q1207.131125217588 545.9629638891338 1202.5934537739372 557.578261232316Q1198.084321144397 569.1935585754982 1187.6961928079882 574.3305451154806Q1177.3366032856907 579.4675316554628 1160.0706207485277 579.4675316554628L1160.0706207485277 579.4675316554628Q1143.004409910142 579.4675316554628 1132.6448203878444 574.3305451154806Q1122.2566920514355 569.1935585754982 1117.6334041654516 557.578261232316Q1113.0101162794674 545.9629638891338 1113.0101162794674 526.841958434755L1113.0101162794674 526.841958434755Q1113.0101162794674 507.7494917944874 1117.6334041654516 496.1341944513052Q1122.2566920514355 484.5188971081229 1132.6448203878444 479.3819105681406Q1143.004409910142 474.24492402815827 1160.0706207485277 474.24492402815827ZM1160.0706207485277 489.056568551774L1160.0706207485277 489.056568551774Q1149.168793758121 489.056568551774 1142.9187934678089 492.4241486168735Q1136.6402543633862 495.820267496084 1133.9576058369507 504.03944596005573Q1131.3034961246267 512.2586244240274 1131.3034961246267 526.841958434755L1131.3034961246267 526.841958434755Q1131.3034961246267 541.4538312595937 1133.9576058369507 549.6730097235654Q1136.6402543633862 557.8921881875372 1142.9187934678089 561.2597682526366Q1149.168793758121 564.6558871318473 1160.0706207485277 564.6558871318473L1160.0706207485277 564.6558871318473Q1170.9439089248235 564.6558871318473 1177.3366032856907 561.2597682526366Q1183.7007588324464 557.8921881875372 1186.3548685447706 549.6730097235654Q1189.037517071206 541.4538312595937 1189.037517071206 526.841958434755L1189.037517071206 526.841958434755Q1189.037517071206 512.2586244240274 1186.3548685447706 504.03944596005573Q1183.7007588324464 495.820267496084 1177.3366032856907 492.4241486168735Q1170.9439089248235 489.056568551774 1160.0706207485277 489.056568551774ZM1271.4290734097 429.467524687979L1271.4290734097 429.467524687979Q1274.7110370324667 429.467524687979 1279.848023572449 429.55314113031204Q1284.9850101124312 429.6672963867561 1290.3503071653017 429.9812233419772Q1295.687065404061 430.26661148308733 1299.5968829372698 430.89446539352963L1299.5968829372698 430.89446539352963L1298.1414034176082 443.8510869999295L1277.593457257679 443.8510869999295Q1267.7475663893795 443.8510869999295 1263.7235935997267 447.73236571902726Q1259.7281596241849 451.642183252236 1259.7281596241849 460.68898732542715L1259.7281596241849 460.68898732542715L1259.7281596241849 576.7848831290278L1242.262405388245 576.7848831290278L1242.262405388245 458.8339644082113Q1242.262405388245 449.387616937466 1245.1448256134572 442.9093061342661Q1247.9987070245586 436.43099533106613 1254.3914013854255 432.94926000952256Q1260.7555569321814 429.467524687979 1271.4290734097 429.467524687979ZM1243.2898026962414 476.7278008558164L1291.7772478708523 476.7278008558164L1291.7772478708523 490.4835092573246L1224.1687972418626 490.4835092573246L1224.1687972418626 477.75519816381285L1243.2898026962414 476.7278008558164ZM1414.237299221209 432.32140609908026L1414.237299221209 432.32140609908026Q1421.4290803771842 432.32140609908026 1428.221318135605 432.7494883107455Q1434.985017079915 433.1490317082997 1441.3777114407822 434.0908125739631Q1447.7418669875378 435.0040546255155 1453.7064791367397 436.65930584395426L1453.7064791367397 436.65930584395426L1451.8514562195242 450.2152425466854Q1445.487300672768 449.5873886362431 1439.0089898695683 449.1878452386889Q1432.530679066368 448.7597630270237 1426.5660669171666 448.6741465846907Q1420.6014547679647 448.5599913282466 1415.2646965292051 448.5599913282466L1415.2646965292051 448.5599913282466Q1403.763554442467 448.5599913282466 1395.8583029337165 450.7289412006836Q1387.953051424966 452.8693522590096 1383.2156082825377 459.0337361069884Q1378.47816514011 465.1981199549672 1376.3377540817837 476.7278008558164Q1374.1688042093465 488.2289429425546 1374.1688042093465 506.72209448649096L1374.1688042093465 506.72209448649096Q1374.1688042093465 527.6695840439745 1377.0512244345591 540.1125069963762Q1379.9336446597713 552.5268911346667 1386.6973436040812 558.0919598863143Q1393.4895813625026 563.6284898238507 1404.7909517504636 563.6284898238507L1404.7909517504636 563.6284898238507Q1412.610586816881 563.6284898238507 1419.0603588059703 561.3739235090807Q1425.53866960917 559.1193571943106 1431.1893548031508 555.523466616323Q1436.840039997131 551.9275760383355 1442.1767982358906 548.0177585051267L1442.1767982358906 548.0177585051267L1444.6596750635485 559.1193571943106Q1440.949629229117 563.4287181250736 1434.4713184259172 568.1661612675018Q1428.021546436828 572.8750655958189 1419.374285761191 576.1570292185854Q1410.7555638996655 579.4675316554628 1399.8537369092583 579.4675316554628L1399.8537369092583 579.4675316554628Q1384.0432338917572 579.4675316554628 1374.083187767014 571.5337413326013Q1364.0946028281592 563.6284898238507 1359.585470198619 547.3042881523513Q1355.076337569079 530.9515476667409 1355.076337569079 505.49492547971744L1355.076337569079 505.49492547971744Q1355.076337569079 477.32711595214766 1360.7270227630597 461.40245767820244Q1366.37770795704 445.4777994042572 1379.419946005773 438.91387215872425Q1392.462184054506 432.32140609908026 1414.237299221209 432.32140609908026ZM1439.7224602223437 494.79287018808753L1457.3879861570604 494.79287018808753L1457.3879861570604 576.7848831290278L1444.2315928518833 576.7848831290278L1441.3777114407822 555.8373935715442L1439.7224602223437 551.7278043395584L1439.7224602223437 494.79287018808753ZM1487.3822797877351 476.7278008558164L1500.966755304577 476.7278008558164L1503.2213216193472 495.820267496084L1504.8480340236747 498.9024594200734L1504.8480340236747 576.7848831290278L1487.3822797877351 576.7848831290278L1487.3822797877351 476.7278008558164ZM1545.5443829459791 474.24492402815827L1550.0535155755192 474.24492402815827L1547.9987209595265 490.68328095610167L1542.2624193232127 490.68328095610167Q1533.4153869487986 490.68328095610167 1524.596893388496 494.27917153408936Q1515.749861014082 497.87506211207693 1503.0215499205701 504.46752817172097L1503.0215499205701 504.46752817172097L1501.5660704009083 493.565701181314Q1512.6676690900927 484.5188971081229 1523.8548842216092 479.3819105681406Q1535.0706381672376 474.24492402815827 1545.5443829459791 474.24492402815827L1545.5443829459791 474.24492402815827ZM1617.0626511081778 474.24492402815827L1617.0626511081778 474.24492402815827Q1628.1357109832506 474.24492402815827 1635.841190793224 477.2414995098146Q1643.5466706031975 480.20953617735995 1647.4564881364063 487.20154563455816Q1651.366305669615 494.1935550917563 1651.366305669615 506.2940122748258L1651.366305669615 506.2940122748258L1651.366305669615 576.7848831290278L1637.610597268107 576.7848831290278L1634.9279487416716 555.0097679623248L1633.7007797348983 552.7552016475548L1633.7007797348983 506.2940122748258Q1633.7007797348983 497.0474365028576 1629.4770352464684 493.0520025273158Q1625.2818295721495 489.056568551774 1613.3526052737461 489.056568551774L1613.3526052737461 489.056568551774Q1605.5329702073282 489.056568551774 1593.7179011653693 489.8556553468823Q1581.90283212341 490.68328095610167 1570.4016900366714 491.7106782640982L1570.4016900366714 491.7106782640982L1568.774977632344 478.7825954718093Q1575.738448275431 477.5268876509247 1584.0717819958468 476.49949034292825Q1592.4051157162626 475.4720930349318 1601.0238375777885 474.87277793860056Q1609.6425594393145 474.24492402815827 1617.0626511081778 474.24492402815827ZM1591.9770335045973 515.1410446492398L1643.1471272056433 515.1410446492398L1642.9473555068662 528.2974379544168L1595.0592254285866 528.4972096531937Q1587.8674442726115 528.6969813519709 1584.9850240473993 532.2928719299584Q1582.1311426362977 535.8887625079462 1582.1311426362977 542.252918054702L1582.1311426362977 542.252918054702L1582.1311426362977 548.645612415569Q1582.1311426362977 556.4367086678756 1585.8126496566188 560.0325992458631Q1589.5226954910504 563.6284898238507 1597.7418739550221 563.6284898238507L1597.7418739550221 563.6284898238507Q1603.4781755913355 563.6284898238507 1610.7841120037547 561.4880787655247Q1618.0900484161743 559.3191288930877 1625.4816012709266 554.8099962635478Q1632.8731541256789 550.2723248198968 1639.0375379736574 543.2803153626985L1639.0375379736574 543.2803153626985L1639.0375379736574 556.2369369690985Q1636.7829716588876 559.1193571943106 1632.5592271704577 562.9150194710753Q1628.3640214961388 566.7106817478402 1622.48502578927 570.3065723258278Q1616.6345688965125 573.9024629038154 1609.5569429969814 576.2711844750295Q1602.4507782833389 578.6399060462436 1594.2315998193671 578.6399060462436L1594.2315998193671 578.6399060462436Q1585.4131062590645 578.6399060462436 1578.6208685006432 575.44355886581Q1571.8571695563332 572.2757504994877 1568.0329684654575 565.9972113950648Q1564.2373061886929 559.718672290642 1564.2373061886929 550.7004070315619L1564.2373061886929 550.7004070315619L1564.2373061886929 539.798580041155Q1564.2373061886929 528.0976662556396 1571.543242601112 521.6193554524398Q1578.8206401994203 515.1410446492398 1591.9770335045973 515.1410446492398L1591.9770335045973 515.1410446492398ZM1690.2076316747039 447.133050622696L1707.673385910644 447.133050622696L1707.673385910644 549.2449275119002Q1707.673385910644 556.4367086678756 1710.7555778346332 559.5189005918648Q1713.8377697586225 562.6010925158544 1721.2293226133747 562.6010925158544L1721.2293226133747 562.6010925158544L1736.4405105345445 562.6010925158544L1738.4953051505377 575.9572575198083Q1735.2133415277713 576.7848831290278 1730.8754417828973 577.4127370394699Q1726.5660808521343 578.0120521358012 1722.4564916201484 578.3259790910224Q1718.3469023881626 578.6399060462436 1715.8925643746152 578.6399060462436L1715.8925643746152 578.6399060462436Q1703.364024979881 578.6399060462436 1696.7715589202367 571.6478965890453Q1690.2076316747039 564.6558871318473 1690.2076316747039 551.4994938266702L1690.2076316747039 551.4994938266702L1690.2076316747039 447.133050622696ZM1691.8343440790313 476.7278008558164L1739.5227024585342 476.7278008558164L1739.5227024585342 490.4835092573246L1672.1140235283215 490.4835092573246L1672.1140235283215 477.75519816381285L1691.8343440790313 476.7278008558164ZM1761.697361022791 476.7278008558164L1778.963343559954 476.7278008558164L1778.963343559954 576.7848831290278L1761.697361022791 576.7848831290278L1761.697361022791 476.7278008558164ZM1766.2350324664421 434.17642901629614L1774.4542109304139 434.17642901629614Q1779.7909691691734 434.17642901629614 1779.7909691691734 439.5131872550555L1779.7909691691734 439.5131872550555L1779.7909691691734 451.24263985468184Q1779.7909691691734 456.5793980934413 1774.4542109304139 456.5793980934413L1774.4542109304139 456.5793980934413L1766.2350324664421 456.5793980934413Q1760.8982742276826 456.5793980934413 1760.8982742276826 451.24263985468184L1760.8982742276826 451.24263985468184L1760.8982742276826 439.5131872550555Q1760.8982742276826 434.17642901629614 1766.2350324664421 434.17642901629614L1766.2350324664421 434.17642901629614ZM1819.4599207834813 447.133050622696L1836.9256750194213 447.133050622696L1836.9256750194213 549.2449275119002Q1836.9256750194213 556.4367086678756 1840.0078669434106 559.5189005918648Q1843.0900588673999 562.6010925158544 1850.4816117221526 562.6010925158544L1850.4816117221526 562.6010925158544L1865.6927996433224 562.6010925158544L1867.747594259315 575.9572575198083Q1864.4370918224377 576.7848831290278 1860.1277308916747 577.4127370394699Q1855.8183699609122 578.0120521358012 1851.7087807289263 578.3259790910224Q1847.59919149694 578.6399060462436 1845.144853483393 578.6399060462436L1845.144853483393 578.6399060462436Q1832.5877752745473 578.6399060462436 1826.0238480290145 571.6478965890453Q1819.4599207834813 564.6558871318473 1819.4599207834813 551.4994938266702L1819.4599207834813 551.4994938266702L1819.4599207834813 447.133050622696ZM1821.0866331878092 476.7278008558164L1868.7749915673116 476.7278008558164L1868.7749915673116 490.4835092573246L1801.3663126370993 490.4835092573246L1801.3663126370993 477.75519816381285L1821.0866331878092 476.7278008558164ZM1889.522709426018 476.7278008558164L1906.9884636619577 476.7278008558164L1906.9884636619577 546.9903611971301Q1906.788691963181 556.4367086678756 1910.4701989835016 560.3465262010843Q1914.1802448179333 564.2563437342931 1922.7989666794592 564.2563437342931L1922.7989666794592 564.2563437342931Q1931.217916842208 564.2563437342931 1939.5512505626234 560.2323709446403Q1947.8845842830397 556.2369369690985 1959.585498068555 548.645612415569L1959.585498068555 548.645612415569L1961.8400643833247 560.7460695986384Q1950.1391505978095 569.9926453706066 1939.1517071650696 574.7300885130348Q1928.1357249182188 579.4675316554628 1916.8343545302573 579.4675316554628L1916.8343545302573 579.4675316554628Q1889.522709426018 579.4675316554628 1889.522709426018 551.9275760383355L1889.522709426018 551.9275760383355L1889.522709426018 476.7278008558164ZM1957.7304751513389 476.7278008558164L1975.196229387279 476.7278008558164L1975.196229387279 576.7848831290278L1961.2407492869938 576.7848831290278L1959.585498068555 557.8921881875372L1957.7304751513389 554.8099962635478L1957.7304751513389 476.7278008558164ZM2040.5501137014985 474.24492402815827L2040.5501137014985 474.24492402815827Q2050.3960045697977 474.24492402815827 2060.0706625534312 476.81341729814943Q2069.716781722954 479.3819105681406 2078.563814097368 484.7186688069L2078.563814097368 484.7186688069L2077.5364167893713 495.62049579730694Q2067.8617588057377 492.73807557209466 2060.4702059509855 491.1113631677669Q2053.078653096233 489.45611194932815 2044.6597029334844 489.45611194932815L2044.6597029334844 489.45611194932815Q2036.0124422578474 489.45611194932815 2030.789839275532 492.4241486168735Q2025.5386974791058 495.42072409852983 2023.0843594655585 503.4401308637245Q2020.6014826379 511.4309988148081 2020.6014826379 526.2426433384238L2020.6014826379 526.2426433384238Q2020.6014826379 541.0257490479285 2022.9702042091144 549.2449275119002Q2025.3389257803287 557.4641059758719 2030.4759123203107 560.7460695986384Q2035.6128988602932 564.056572035516 2043.6323056254878 564.056572035516L2043.6323056254878 564.056572035516Q2049.5969177746897 564.056572035516 2054.4199773594505 562.5154760735213Q2059.243036944212 560.9743801115264 2064.6939504394154 557.4641059758719Q2070.1448639346186 553.9823706543284 2077.5364167893713 548.645612415569L2077.5364167893713 548.645612415569L2079.1631291936988 560.9743801115264Q2070.943950729727 568.565704665056 2060.4702059509855 573.9024629038154Q2049.9964611722435 579.2392211425747 2037.867465175063 579.2392211425747L2037.867465175063 579.2392211425747Q2018.9747702335726 579.2392211425747 2010.841208211934 565.8830561386208Q2002.7361850044063 552.5268911346667 2002.7361850044063 526.4424150372008L2002.7361850044063 526.4424150372008Q2002.7361850044063 506.9218661852681 2006.8457742363921 495.5063405408629Q2010.955363468378 484.11935371056876 2019.3743136311268 479.1821388693635Q2027.7932637938757 474.24492402815827 2040.5501137014985 474.24492402815827ZM2075.281850474601 432.94926000952256L2092.747604710541 432.94926000952256L2092.747604710541 576.7848831290278L2079.1631291936988 576.7848831290278L2077.108334577706 559.3191288930877L2075.281850474601 557.8921881875372L2075.281850474601 489.25634025055103L2076.5090194813747 486.1741483265617Q2075.6813938721552 480.40930787613706 2075.481622173378 475.0725496373776Q2075.281850474601 469.73579139861823 2075.281850474601 463.77117924941655L2075.281850474601 463.77117924941655L2075.281850474601 432.94926000952256ZM2166.0923569758443 474.24492402815827L2166.0923569758443 474.24492402815827Q2188.6950977517663 474.24492402815827 2198.854915575287 482.46410249213Q2209.0432722129185 490.68328095610167 2209.0432722129185 506.9218661852681L2209.0432722129185 506.9218661852681Q2209.2430439116956 520.278031189222 2203.4782034612713 527.7837393004186Q2197.741901824958 535.2894474116149 2185.2133624302232 535.2894474116149L2185.2133624302232 535.2894474116149L2126.8514875732017 535.2894474116149L2126.8514875732017 521.7049718947728L2180.675690986572 521.7049718947728Q2187.467928744993 521.7049718947728 2189.5227233609858 517.0816840087887Q2191.5775179769785 512.4583961228045 2191.5775179769785 506.9218661852681L2191.5775179769785 506.9218661852681Q2191.377746278202 497.2757470157457 2185.812677526554 493.16615778375984Q2180.276147589018 489.056568551774 2166.9199825850637 489.056568551774L2166.9199825850637 489.056568551774Q2156.018155594657 489.056568551774 2149.768155304345 492.2243769180964Q2143.4896161999222 495.42072409852983 2140.921122929931 503.32597560728044Q2138.35262965994 511.231227116031 2138.35262965994 525.4150177292045L2138.35262965994 525.4150177292045Q2138.35262965994 541.4538312595937 2141.548976840373 549.8727814223425Q2144.7167852066955 558.2917315850914 2151.7087946638935 561.3739235090807Q2158.700804121092 564.4561154330702 2170.20194620783 564.4561154330702L2170.20194620783 564.4561154330702Q2178.2213529730248 564.4561154330702 2187.7818557002142 563.7426450802948Q2197.3138196132927 563.0291747275194 2204.933682980933 562.001777419523L2204.933682980933 562.001777419523L2206.7887058981487 573.7026912050383Q2202.0512627557205 575.5577141222541 2195.1734085549665 576.7848831290278Q2188.2955543542125 578.0120521358012 2180.989617941793 578.6399060462436Q2173.683681529374 579.2392211425747 2167.94737989306 579.2392211425747L2167.94737989306 579.2392211425747Q2150.6813973558974 579.2392211425747 2140.2076525771554 574.0166181602594Q2129.733907798414 568.765476363833 2124.8823093995416 557.1501790206507Q2120.0592498147803 545.5634204915796 2120.0592498147803 526.4424150372008L2120.0592498147803 526.4424150372008Q2120.0592498147803 506.72209448649096 2124.8823093995416 495.3065688420858Q2129.733907798414 483.91958201179165 2139.8937256219347 479.0679836129194Q2150.053543445455 474.24492402815827 2166.0923569758443 474.24492402815827Z " fill="#ffffff" transform="matrix(0.39609784449006996,0,0,0.39609784449006996,0,100.18151229503067)"/></g></svg>